<svg height="512pt" viewBox="0 0 512 512" width="512pt" xmlns="http://www.w3.org/2000/svg"><path d="m0 0h512v512h-512z" fill="#e7eced"/><path d="m150.070312 220.691406v70.617188h-70.621093v-70.617188zm0 0" fill="#dd352e"/><path d="m150.070312 370.757812v70.621094h-70.621093v-70.621094zm0 0" fill="#ed8a19"/><g fill="#28384c"><path d="m229.515625 88.277344h203.035156v35.308594h-203.035156zm0 0"/><path d="m229.515625 238.34375h203.035156v35.3125h-203.035156zm0 0"/><path d="m229.515625 388.414062h203.035156v35.308594h-203.035156zm0 0"/></g><path d="m105.929688 150.070312c-2.257813 0-4.519532-.867187-6.238282-2.585937l-26.484375-26.484375c-3.453125-3.453125-3.453125-9.03125 0-12.484375 3.441407-3.449219 9.039063-3.449219 12.480469 0l26.484375 26.484375c3.453125 3.453125 3.453125 9.03125 0 12.484375-1.722656 1.71875-3.980469 2.585937-6.242187 2.585937zm0 0" fill="#25ae88"/><path d="m105.921875 150.070312c-1.773437 0-3.566406-.539062-5.128906-1.644531-3.964844-2.832031-4.882813-8.351562-2.046875-12.3125l44.136718-61.792969c2.835938-3.972656 8.351563-4.875 12.316407-2.058593 3.960937 2.835937 4.878906 8.351562 2.046875 12.316406l-44.136719 61.792969c-1.714844 2.410156-4.433594 3.699218-7.1875 3.699218zm0 0" fill="#25ae88"/></svg>